<svg width="1351" height="537" viewBox="0 0 1351 537" fill="none" xmlns="http://www.w3.org/2000/svg">
<g clip-path="url(#clip0_125_562)">
<path d="M177.39 353.67C173.7 340.38 166.32 326.85 150.82 326.85C138.27 326.85 127.45 335.95 127.45 348.99C127.45 386.63 217.5 362.03 217.5 433.38C217.5 456.75 199.79 491.69 152.55 491.69C116.14 491.69 89.8099 473.97 83.8999 436.58L122.28 430.92C125.72 447.16 134.09 459.21 152.3 459.21C167.31 459.21 179.86 451.34 179.86 434.85C179.86 396.47 89.8099 418.61 89.8099 353.41C89.8099 318.96 118.84 294.36 152.06 294.36C185.28 294.36 208.9 315.27 212.09 347.5L177.4 353.65L177.39 353.67Z" fill="#0A0A0A"/>
<path d="M390.7 488.75H351.33L325.74 356.38H325.25L299.42 488.75H260.05L219.7 297.33H257.59L280.47 432.16H280.96L304.83 297.33H347.15L371.02 432.16H371.51L396.36 297.33H434.25L390.7 488.75Z" fill="#0A0A0A"/>
<path d="M585.32 488.75H546.2L533.65 440.77H477.06L464.51 488.75H425.39L479.03 297.33H530.7L585.32 488.75ZM505.85 330.3H504.87L484.69 410.51H526.02L505.84 330.3H505.85Z" fill="#0A0A0A"/>
<path d="M630.1 456.27H709.82V488.75H591.72V297.33H630.1V456.27Z" fill="#0A0A0A"/>
<path d="M762.23 456.27H841.95V488.75H723.85V297.33H762.23V456.27Z" fill="#0A0A0A"/>
<path d="M991.51 290.17C1017.28 290.17 1026.42 304.79 1026.42 324.03C1026.42 343.27 1016.41 357.89 996.21 357.89H974.97V290.16H991.51V290.17ZM995.16 346.41C1005.95 346.41 1012.48 339.62 1012.48 322.47C1012.48 308.28 1006.39 301.66 993.68 301.66H988.54V346.4H995.16V346.41Z" fill="#0A0A0A"/>
<path d="M1059.5 290.17C1075.08 290.17 1081.18 301.31 1081.18 309.93C1081.18 317.33 1076.57 324.21 1069.69 326.99L1083.18 357.89H1068.9L1056.71 329.77H1046.35V357.89H1032.77V290.16H1059.49L1059.5 290.17ZM1052.27 318.29C1058.19 318.29 1067.24 318.64 1067.24 310.19C1067.24 300.88 1058.1 301.66 1051.4 301.66H1046.35V318.29H1052.27Z" fill="#0A0A0A"/>
<path d="M1032.29 484.6H976.27V466.58C994.18 444.41 1015.04 437.09 1015.04 422.35C1015.04 416.45 1011.33 411.76 1005.21 411.76C996.36 411.76 993.52 418.75 992.32 426.28L976.27 423.44C976.82 407.17 989.05 398.32 1004.66 398.32C1023.88 398.32 1032.51 409.79 1032.51 423.11C1032.51 445.28 1010.23 449.65 993.52 470.18H1032.29V484.6Z" fill="#0A0A0A"/>
<path d="M1101.53 442.89C1101.53 474.23 1085.91 485.92 1069.97 485.92C1054.03 485.92 1038.41 474.23 1038.41 442.89C1038.41 411.55 1050.75 398.33 1069.97 398.33C1089.19 398.33 1101.53 413.07 1101.53 442.89ZM1055.11 442.89C1055.11 453.15 1055.77 472.05 1069.96 472.05C1084.15 472.05 1084.81 453.16 1084.81 442.89C1084.81 432.62 1084.59 412.2 1069.96 412.2C1055.33 412.2 1055.11 432.51 1055.11 442.89Z" fill="#0A0A0A"/>
<path d="M1167.27 442.89C1167.27 474.23 1151.65 485.92 1135.71 485.92C1119.77 485.92 1104.15 474.23 1104.15 442.89C1104.15 411.55 1116.49 398.33 1135.71 398.33C1154.93 398.33 1167.27 413.07 1167.27 442.89ZM1120.85 442.89C1120.85 453.15 1121.51 472.05 1135.7 472.05C1149.89 472.05 1150.55 453.16 1150.55 442.89C1150.55 432.62 1150.33 412.2 1135.7 412.2C1121.07 412.2 1120.85 432.51 1120.85 442.89Z" fill="#0A0A0A"/>
<path d="M1244.8 424.65C1243.16 418.75 1239.89 412.75 1233.01 412.75C1227.44 412.75 1222.63 416.79 1222.63 422.58C1222.63 439.29 1262.6 428.37 1262.6 460.04C1262.6 470.41 1254.74 485.92 1233.77 485.92C1217.61 485.92 1205.92 478.06 1203.3 461.46L1220.34 458.95C1221.87 466.16 1225.58 471.51 1233.66 471.51C1240.32 471.51 1245.89 468.01 1245.89 460.7C1245.89 443.66 1205.92 453.49 1205.92 424.55C1205.92 409.26 1218.81 398.34 1233.55 398.34C1248.29 398.34 1258.78 407.62 1260.2 421.93L1244.8 424.66V424.65Z" fill="#0A0A0A"/>
<path d="M1181.17 291.67C1194.04 301.76 1206.61 311.67 1219.36 321.7C1206.67 331.79 1194.1 341.82 1181.29 351.97V338.07C1180.62 338.01 1159.48 337.89 1158.93 337.89V305.93H1181.17V291.67Z" fill="#0A0A0A"/>
<path d="M1350.52 536.11H0V243.97H1350.52V536.12V536.11ZM14 522.11H1336.52V257.96H14V522.11Z" fill="#0A0A0A"/>
<path d="M313.71 251.44H299.71V167.52H365.98V114.74H540.18V128.74H379.98V181.52H313.71V251.44Z" fill="#0A0A0A"/>
<path d="M1050.81 251.44H1036.81V181.52H970.54V128.74H810.35V114.74H984.54V167.52H1050.81V251.44Z" fill="#0A0A0A"/>
<path d="M823.09 128.69H809.09C809.09 65.45 749.06 14 675.27 14C601.48 14 541.45 65.45 541.45 128.69H527.45C527.44 57.73 593.75 0 675.26 0C756.77 0 823.08 57.73 823.08 128.69H823.09Z" fill="#0A0A0A"/>
<path d="M888.532 152.023L877.444 163.111L888.532 174.198L899.619 163.111L888.532 152.023Z" fill="#0A0A0A"/>
<path d="M902.508 164.999L891.421 176.086L902.508 187.174L913.596 176.086L902.508 164.999Z" fill="#0A0A0A"/>
<path d="M874.919 164.998L863.832 176.085L874.919 187.173L886.007 176.085L874.919 164.998Z" fill="#0A0A0A"/>
<path d="M888.53 178.591L877.442 189.678L888.53 200.766L899.617 189.678L888.53 178.591Z" fill="#0A0A0A"/>
<path d="M461.614 152.021L450.526 163.109L461.614 174.196L472.701 163.109L461.614 152.021Z" fill="#0A0A0A"/>
<path d="M475.597 164.99L464.51 176.077L475.597 187.165L486.685 176.077L475.597 164.99Z" fill="#0A0A0A"/>
<path d="M448.008 164.989L436.921 176.076L448.008 187.164L459.096 176.076L448.008 164.989Z" fill="#0A0A0A"/>
<path d="M461.612 178.599L450.524 189.687L461.612 200.774L472.699 189.687L461.612 178.599Z" fill="#0A0A0A"/>
<path d="M879.31 172.68H475.6V179.49H879.31V172.68Z" fill="#0A0A0A"/>
</g>
<defs>
<clipPath id="clip0_125_562">
<rect width="1350.52" height="536.11" fill="white"/>
</clipPath>
</defs>
</svg>
